<?xml version="1.0" standalone="no"?>
<!DOCTYPE svg PUBLIC "-//W3C//DTD SVG 20010904//EN"
 "http://www.w3.org/TR/2001/REC-SVG-20010904/DTD/svg10.dtd">
<svg version="1.0" xmlns="http://www.w3.org/2000/svg"
 width="1334.000000pt" height="1334.000000pt" viewBox="0 0 1334.000000 1334.000000"
 preserveAspectRatio="xMidYMid meet">
<metadata>
Created by potrace 1.11, written by Peter Selinger 2001-2013
</metadata>
<g transform="translate(0.000000,1334.000000) scale(0.100000,-0.100000)"
fill="#000000" stroke="none">
<path d="M1700 11604 c-109 -29 -199 -106 -248 -212 l-27 -57 0 -1209 0 -1209
374 -258 c206 -143 378 -259 383 -259 4 0 8 551 8 1225 l0 1225 3578 -3 3577
-3 110 -22 c350 -69 633 -191 890 -384 457 -343 749 -848 815 -1408 8 -68 10
-749 8 -2420 l-3 -2325 -23 -112 c-90 -451 -289 -817 -613 -1128 -307 -296
-668 -471 -1136 -552 -90 -16 -311 -18 -2683 -23 l-2585 -5 -47 -23 c-216
-107 -280 -393 -131 -589 13 -17 47 -47 76 -66 106 -73 -117 -67 2681 -67
1563 0 2565 4 2636 10 565 48 1094 260 1540 616 109 87 337 315 424 424 118
148 245 349 331 525 123 250 188 439 239 695 53 266 51 165 51 2685 0 2592 4
2435 -61 2725 -57 252 -111 406 -229 645 -269 546 -701 986 -1242 1263 -292
149 -563 235 -913 289 -108 16 -348 17 -3920 20 -3333 2 -3812 0 -3860 -13z"/>
<path d="M1420 7973 l0 -288 377 -260 c207 -143 380 -261 385 -263 4 -2 8 126
8 285 l0 290 -227 155 c-126 85 -299 203 -385 262 l-158 107 0 -288z"/>
<path d="M1420 6782 l0 -299 379 -261 c208 -144 382 -262 385 -262 3 0 6 134
6 298 l0 298 -222 151 c-123 83 -296 201 -385 262 l-163 111 0 -298z"/>
<path d="M1422 5563 l3 -297 380 -263 c209 -144 381 -263 383 -263 1 0 2 134
2 298 l0 298 -207 141 c-115 78 -288 196 -386 262 l-177 122 2 -298z"/>
<path d="M1422 3328 l3 -1333 27 -56 c59 -119 183 -205 314 -216 172 -14 334
82 396 236 l23 56 3 1062 2 1061 -372 254 c-205 140 -379 257 -386 262 -10 6
-12 -253 -10 -1326z"/>
</g>
</svg>
